<?xml version="1.0" encoding="UTF-8"?>
<svg xmlns="http://www.w3.org/2000/svg" xmlns:xlink="http://www.w3.org/1999/xlink" width="1920" zoomAndPan="magnify" viewBox="0 0 1440 809.999993" height="1080" preserveAspectRatio="xMidYMid meet" version="1.0" style="background: transparent;"><defs><clipPath id="8593df10c4"><path d="M 345.722656 81 L 992.972656 81 L 992.972656 729 L 345.722656 729 Z M 345.722656 81 " clip-rule="nonzero"/></clipPath></defs><path fill="#496ee0" d="M 746.441406 497.25 L 746.441406 477.96875 L 727.160156 477.96875 L 727.160156 458.683594 L 611.464844 458.683594 L 611.464844 477.96875 L 592.183594 477.96875 L 592.183594 497.25 L 572.902344 497.25 L 572.902344 574.375 L 765.722656 574.375 L 765.722656 497.25 Z M 746.441406 497.25 " fill-opacity="1" fill-rule="nonzero"/><path fill="#496ee0" d="M 561.449219 361.78125 L 583.019531 361.78125 L 583.019531 383.355469 L 561.449219 383.355469 Z M 561.449219 361.78125 " fill-opacity="1" fill-rule="nonzero"/><path fill="#496ee0" d="M 518.304688 361.78125 L 539.875 361.78125 L 539.875 383.355469 L 518.304688 383.355469 Z M 518.304688 361.78125 " fill-opacity="1" fill-rule="nonzero"/><path fill="#496ee0" d="M 539.875 340.207031 L 561.449219 340.207031 L 561.449219 361.78125 L 539.875 361.78125 Z M 539.875 340.207031 " fill-opacity="1" fill-rule="nonzero"/><path fill="#496ee0" d="M 561.449219 318.636719 L 583.019531 318.636719 L 583.019531 340.207031 L 561.449219 340.207031 Z M 561.449219 318.636719 " fill-opacity="1" fill-rule="nonzero"/><path fill="#496ee0" d="M 518.304688 318.636719 L 539.875 318.636719 L 539.875 340.207031 L 518.304688 340.207031 Z M 518.304688 318.636719 " fill-opacity="1" fill-rule="nonzero"/><path fill="#496ee0" d="M 798.75 361.78125 L 820.320312 361.78125 L 820.320312 383.355469 L 798.75 383.355469 Z M 798.75 361.78125 " fill-opacity="1" fill-rule="nonzero"/><path fill="#496ee0" d="M 755.601562 361.78125 L 777.175781 361.78125 L 777.175781 383.355469 L 755.601562 383.355469 Z M 755.601562 361.78125 " fill-opacity="1" fill-rule="nonzero"/><path fill="#496ee0" d="M 777.175781 340.207031 L 798.75 340.207031 L 798.75 361.78125 L 777.175781 361.78125 Z M 777.175781 340.207031 " fill-opacity="1" fill-rule="nonzero"/><path fill="#496ee0" d="M 798.75 318.636719 L 820.320312 318.636719 L 820.320312 340.207031 L 798.75 340.207031 Z M 798.75 318.636719 " fill-opacity="1" fill-rule="nonzero"/><path fill="#496ee0" d="M 755.601562 318.636719 L 777.175781 318.636719 L 777.175781 340.207031 L 755.601562 340.207031 Z M 755.601562 318.636719 " fill-opacity="1" fill-rule="nonzero"/><g clip-path="url(#8593df10c4)"><path fill="#496ee0" d="M 971.328125 318.636719 L 971.328125 253.863281 L 949.757812 253.863281 L 949.757812 232.273438 L 928.183594 232.273438 L 928.183594 189.089844 L 906.609375 189.089844 L 906.609375 167.5 L 885.039062 167.5 L 885.039062 145.910156 L 841.890625 145.910156 L 841.890625 124.316406 L 798.75 124.316406 L 798.75 102.726562 L 755.605469 102.726562 L 755.605469 81.136719 L 583.019531 81.136719 L 583.019531 102.726562 L 539.875 102.726562 L 539.875 124.316406 L 496.734375 124.316406 L 496.734375 145.910156 L 453.585938 145.910156 L 453.585938 167.5 L 432.015625 167.5 L 432.015625 189.089844 L 410.441406 189.089844 L 410.441406 232.273438 L 388.867188 232.273438 L 388.867188 253.863281 L 367.296875 253.863281 L 367.296875 318.636719 L 345.722656 318.636719 L 345.722656 491.363281 L 367.296875 491.363281 L 367.296875 556.136719 L 388.867188 556.136719 L 388.867188 599.320312 L 410.441406 599.320312 L 410.441406 620.910156 L 432.015625 620.910156 L 432.015625 642.5 L 453.585938 642.5 L 453.585938 664.089844 L 475.160156 664.089844 L 475.160156 685.683594 L 518.300781 685.683594 L 518.300781 707.273438 L 583.019531 707.273438 L 583.019531 728.863281 L 755.605469 728.863281 L 755.605469 707.273438 L 820.324219 707.273438 L 820.324219 685.683594 L 863.464844 685.683594 L 863.464844 664.089844 L 885.039062 664.089844 L 885.039062 642.5 L 906.609375 642.5 L 906.609375 620.910156 L 928.183594 620.910156 L 928.183594 599.320312 L 949.757812 599.320312 L 949.757812 556.136719 L 971.328125 556.136719 L 971.328125 491.363281 L 992.902344 491.363281 L 992.902344 318.636719 Z M 949.757812 512.953125 L 928.183594 512.953125 L 928.183594 556.136719 L 906.609375 556.136719 L 906.609375 577.726562 L 885.039062 577.726562 L 885.039062 620.910156 L 841.890625 620.910156 L 841.890625 642.5 L 820.324219 642.5 L 820.324219 664.089844 L 777.175781 664.089844 L 777.175781 685.683594 L 561.449219 685.683594 L 561.449219 664.089844 L 518.300781 664.089844 L 518.300781 642.5 L 496.734375 642.5 L 496.734375 620.910156 L 453.585938 620.910156 L 453.585938 577.726562 L 432.015625 577.726562 L 432.015625 556.136719 L 410.441406 556.136719 L 410.441406 512.953125 L 388.867188 512.953125 L 388.867188 297.046875 L 410.441406 297.046875 L 410.441406 253.863281 L 432.015625 253.863281 L 432.015625 232.273438 L 453.585938 232.273438 L 453.585938 189.089844 L 496.734375 189.089844 L 496.734375 167.5 L 518.300781 167.5 L 518.300781 145.910156 L 583.019531 145.910156 L 583.019531 124.316406 L 755.605469 124.316406 L 755.605469 145.910156 L 820.324219 145.910156 L 820.324219 167.5 L 841.890625 167.5 L 841.890625 189.089844 L 885.039062 189.089844 L 885.039062 232.273438 L 906.609375 232.273438 L 906.609375 253.863281 L 928.183594 253.863281 L 928.183594 297.046875 L 949.757812 297.046875 Z M 949.757812 512.953125 " fill-opacity="1" fill-rule="nonzero"/></g></svg>