<svg xmlns="http://www.w3.org/2000/svg" width="1365" height="768" viewBox="0 0 1365 768">
<g>
<path d="M 1009.67 677.67 C1008.88,678.45 373.99,679.04 361.75,678.26 L 356.00 677.90 L 356.00 643.00 L 323.00 643.00 L 323.00 114.05 L 355.50 113.50 L 355.78 98.25 L 356.05 83.01 L 682.58 82.75 C887.82,82.59 1009.45,82.85 1010.05,83.45 C1010.57,83.97 1011.00,91.05 1011.00,99.18 L 1011.00 113.95 L 1045.50 114.50 L 1045.75 376.81 C1045.92,556.49 1045.68,639.73 1044.97,641.06 C1044.01,642.86 1042.73,643.00 1027.55,643.00 L 1011.17 643.00 L 1010.83 659.92 C1010.65,669.22 1010.12,677.21 1009.67,677.67 ZM 392.28 640.19 C392.95,640.62 524.70,640.98 685.05,640.98 C910.49,641.00 976.87,640.73 977.80,639.80 C978.61,638.99 979.00,634.32 979.00,625.33 L 979.00 612.05 L 1010.50 611.50 L 1011.00 211.00 L 356.00 211.00 L 356.25 411.25 L 356.50 611.50 L 390.50 612.50 L 390.78 625.96 C390.97,635.19 391.44,639.66 392.28,640.19 ZM 392.25 166.34 C395.05,167.47 423.60,167.00 424.80,165.80 C426.48,164.12 426.48,131.88 424.80,130.20 C423.54,128.94 395.67,128.42 392.58,129.61 C391.22,130.13 391.00,132.71 391.00,148.02 C391.00,161.34 391.32,165.96 392.25,166.34 ZM 471.75 167.22 C479.86,167.38 487.30,167.14 488.27,166.70 C489.89,165.98 490.02,164.31 489.77,147.70 L 489.50 129.50 L 473.80 129.22 L 473.24 129.22 C462.62,129.03 458.54,128.96 457.09,130.87 C456.19,132.07 456.31,134.04 456.51,137.23 L 456.52 137.50 C456.69,140.25 456.87,148.00 456.91,154.72 L 457.00 166.95 ZM 521.69 167.36 C522.07,167.74 529.38,167.93 537.94,167.77 L 553.50 167.50 L 553.79 151.00 C553.94,141.93 553.82,133.49 553.52,132.25 C552.97,130.03 552.72,130.00 536.98,130.00 L 521.00 130.00 L 521.00 148.33 C521.00,158.42 521.31,166.98 521.69,167.36 Z" fill="rgb(76,142,248)"/>
<path d="M 672.76 526.78 L 672.50 564.50 L 637.82 564.76 C618.74,564.91 602.90,564.65 602.62,564.19 C602.33,563.73 602.10,555.17 602.10,545.17 L 602.10 527.00 L 610.61 527.00 C611.76,527.00 612.81,527.03 613.75,527.05 C616.74,527.13 618.77,527.19 620.15,526.27 C623.09,524.30 623.07,517.91 623.02,497.88 C623.01,494.90 623.00,491.61 623.00,487.99 L 623.00 451.06 L 636.75 450.78 L 650.50 450.50 L 650.76 411.28 L 651.02 372.07 L 662.26 371.78 L 673.50 371.50 L 674.50 295.50 L 690.73 295.32 C699.66,295.22 707.42,294.86 707.98,294.51 C708.61,294.12 709.00,286.72 709.00,274.94 L 709.00 256.00 L 765.04 256.00 L 764.50 294.50 L 754.27 294.78 L 744.04 295.07 L 743.77 313.78 L 743.50 332.50 L 732.76 332.78 L 722.02 333.07 L 721.76 371.28 L 721.50 409.50 L 708.26 409.78 L 695.02 410.06 L 694.76 449.28 L 694.50 488.50 L 683.76 488.78 L 673.02 489.07 ZM 847.77 507.77 L 847.50 526.50 L 823.93 526.77 C810.97,526.91 800.06,526.73 799.68,526.35 C799.31,525.97 799.00,516.76 799.00,505.86 L 799.00 486.06 L 824.50 485.50 L 824.77 468.27 L 825.05 451.04 L 846.27 450.77 L 867.50 450.50 L 867.76 412.25 L 868.02 374.00 L 847.12 374.00 C828.98,374.00 826.13,373.79 825.61,372.42 C825.27,371.55 825.00,362.32 825.00,351.92 L 825.00 333.00 L 812.52 333.00 C800.41,333.00 800.02,332.93 799.48,330.75 C799.18,329.51 799.06,321.30 799.21,312.50 L 799.50 296.50 L 822.23 296.23 L 844.95 295.96 L 845.23 314.23 L 845.50 332.50 L 889.00 333.04 L 889.00 371.97 L 913.75 372.23 L 938.50 372.50 L 938.50 451.50 L 913.77 451.77 L 889.04 452.03 L 888.77 470.27 L 888.50 488.50 L 868.27 488.77 L 848.04 489.04 ZM 567.77 505.75 L 567.50 525.50 L 543.75 525.77 L 520.00 526.04 L 520.00 489.04 L 499.75 488.77 L 479.50 488.50 L 478.95 452.00 L 432.00 452.00 L 432.00 372.04 L 478.50 371.50 L 479.04 333.04 L 519.50 332.50 L 519.77 314.25 L 520.05 296.00 L 568.05 296.00 L 567.77 314.25 L 567.50 332.50 L 555.27 332.78 L 543.04 333.06 L 542.77 353.28 L 542.50 373.50 L 522.24 373.77 L 501.98 374.04 L 502.24 412.27 L 502.50 450.50 L 522.75 450.77 L 543.00 451.04 L 543.00 486.00 L 568.04 486.00 ZM 392.25 166.34 C391.32,165.96 391.00,161.34 391.00,148.02 C391.00,132.71 391.22,130.13 392.58,129.61 C395.67,128.42 423.54,128.94 424.80,130.20 C426.48,131.88 426.48,164.12 424.80,165.80 C423.60,167.00 395.05,167.47 392.25,166.34 ZM 471.75 167.22 L 457.00 166.95 L 456.91 154.72 C456.87,148.00 456.69,140.25 456.52,137.50 L 456.51 137.23 C456.31,134.04 456.19,132.07 457.09,130.87 C458.54,128.96 462.62,129.03 473.24,129.22 L 473.80 129.22 L 489.50 129.50 L 489.77 147.70 C490.02,164.31 489.89,165.98 488.27,166.70 C487.30,167.14 479.86,167.38 471.75,167.22 Z" fill="rgb(77,117,224)"/>
</g>
</svg>