<?xml version="1.0" encoding="UTF-8"?>
<svg xmlns="http://www.w3.org/2000/svg" xmlns:xlink="http://www.w3.org/1999/xlink" width="64px" height="64px" viewBox="0 0 64 64" version="1.1">
<g id="surface1">
<path style=" stroke:none;fill-rule:nonzero;fill:rgb(29.803923%,55.686277%,97.254902%);fill-opacity:1;" d="M 47.339844 56.472656 C 47.304688 56.539062 17.535156 56.585938 16.960938 56.523438 L 16.691406 56.492188 L 16.691406 53.582031 L 15.144531 53.582031 L 15.144531 9.503906 L 16.667969 9.457031 L 16.679688 8.1875 L 16.695312 6.917969 L 32.003906 6.894531 C 41.625 6.882812 47.328125 6.902344 47.359375 6.953125 C 47.382812 6.996094 47.402344 7.585938 47.402344 8.265625 L 47.402344 9.496094 L 49.019531 9.542969 L 49.03125 31.402344 C 49.039062 46.375 49.027344 53.3125 48.996094 53.421875 C 48.949219 53.570312 48.890625 53.582031 48.179688 53.582031 L 47.410156 53.582031 L 47.394531 54.992188 C 47.386719 55.769531 47.359375 56.433594 47.339844 56.472656 Z M 18.394531 53.347656 C 18.425781 53.386719 24.601562 53.414062 32.121094 53.414062 C 42.691406 53.417969 45.800781 53.394531 45.84375 53.316406 C 45.882812 53.25 45.902344 52.859375 45.902344 52.109375 L 45.902344 51.003906 L 47.378906 50.957031 L 47.402344 17.582031 L 16.691406 17.582031 L 16.714844 50.957031 L 18.308594 51.042969 L 18.324219 52.164062 C 18.332031 52.933594 18.351562 53.304688 18.394531 53.347656 Z M 18.390625 13.863281 C 18.523438 13.957031 19.859375 13.917969 19.917969 13.816406 C 19.996094 13.675781 19.996094 10.988281 19.917969 10.851562 C 19.859375 10.746094 18.550781 10.703125 18.40625 10.800781 C 18.34375 10.84375 18.332031 11.058594 18.332031 12.335938 C 18.332031 13.445312 18.347656 13.828125 18.390625 13.863281 Z M 22.117188 13.933594 C 22.5 13.949219 22.847656 13.929688 22.894531 13.890625 C 22.96875 13.832031 22.976562 13.691406 22.964844 12.308594 L 22.949219 10.792969 L 22.214844 10.769531 L 22.1875 10.769531 C 21.691406 10.753906 21.5 10.746094 21.429688 10.90625 C 21.390625 11.003906 21.394531 11.171875 21.402344 11.4375 L 21.40625 11.457031 C 21.414062 11.6875 21.421875 12.332031 21.421875 12.894531 L 21.425781 13.914062 Z M 24.460938 13.945312 C 24.476562 13.976562 24.820312 13.996094 25.222656 13.980469 L 25.953125 13.957031 L 25.964844 12.582031 C 25.972656 11.828125 25.964844 11.125 25.953125 11.019531 C 25.925781 10.835938 25.914062 10.832031 25.175781 10.832031 L 24.429688 10.832031 L 24.429688 12.359375 C 24.429688 13.203125 24.441406 13.914062 24.460938 13.945312 Z M 24.460938 13.945312 "/>
<path style=" stroke:none;fill-rule:nonzero;fill:rgb(30.19608%,45.882353%,87.843138%);fill-opacity:1;" d="M 31.542969 43.898438 L 31.53125 47.042969 L 29.90625 47.0625 C 29.011719 47.074219 28.269531 47.054688 28.253906 47.015625 C 28.242188 46.976562 28.230469 46.265625 28.230469 45.429688 L 28.230469 43.917969 L 28.628906 43.917969 C 28.683594 43.917969 28.734375 43.917969 28.777344 43.921875 C 28.917969 43.925781 29.011719 43.933594 29.078125 43.855469 C 29.214844 43.691406 29.214844 43.160156 29.210938 41.488281 C 29.210938 41.242188 29.210938 40.96875 29.210938 40.664062 L 29.210938 37.589844 L 30.5 37.542969 L 30.523438 31.003906 L 31.578125 30.957031 L 31.625 24.625 L 32.386719 24.609375 C 32.804688 24.601562 33.167969 24.570312 33.195312 24.542969 C 33.222656 24.511719 33.242188 23.894531 33.242188 22.910156 L 33.242188 21.332031 L 35.871094 21.332031 L 35.84375 24.542969 L 35.363281 24.566406 L 34.886719 24.589844 L 34.871094 26.148438 L 34.859375 27.707031 L 33.851562 27.753906 L 33.839844 30.941406 L 33.828125 34.125 L 32.585938 34.171875 L 32.574219 37.441406 L 32.5625 40.707031 L 31.554688 40.753906 Z M 39.75 42.3125 L 39.734375 43.875 L 38.632812 43.898438 C 38.023438 43.910156 37.511719 43.894531 37.496094 43.863281 C 37.476562 43.832031 37.460938 43.0625 37.460938 42.15625 L 37.460938 40.503906 L 38.65625 40.457031 L 38.671875 39.023438 L 38.683594 37.585938 L 39.679688 37.5625 L 40.675781 37.542969 L 40.699219 31.167969 L 39.71875 31.167969 C 38.867188 31.167969 38.734375 31.148438 38.710938 31.035156 C 38.695312 30.960938 38.679688 30.191406 38.679688 29.328125 L 38.679688 27.75 L 38.097656 27.75 C 37.527344 27.75 37.511719 27.746094 37.484375 27.5625 C 37.472656 27.460938 37.464844 26.773438 37.472656 26.042969 L 37.484375 24.707031 L 38.550781 24.6875 L 39.617188 24.664062 L 39.628906 26.1875 L 39.640625 27.707031 L 41.683594 27.753906 L 41.683594 30.996094 L 44.003906 31.042969 L 44.003906 37.625 L 42.84375 37.648438 L 41.683594 37.667969 L 41.660156 40.707031 L 39.761719 40.753906 Z M 26.621094 42.144531 L 26.609375 43.792969 L 25.496094 43.8125 L 24.382812 43.835938 L 24.382812 40.753906 L 23.429688 40.730469 L 22.480469 40.707031 L 22.457031 37.667969 L 20.253906 37.667969 L 20.253906 31.003906 L 22.433594 30.957031 L 22.460938 27.753906 L 24.359375 27.707031 L 24.382812 24.667969 L 26.632812 24.667969 L 26.609375 27.707031 L 25.460938 27.753906 L 25.449219 29.441406 L 25.4375 31.125 L 24.484375 31.148438 L 23.535156 31.171875 L 23.546875 34.355469 L 23.558594 37.542969 L 24.511719 37.5625 L 25.460938 37.585938 L 25.460938 40.5 L 26.632812 40.5 Z M 18.390625 13.863281 C 18.347656 13.828125 18.332031 13.445312 18.332031 12.335938 C 18.332031 11.058594 18.34375 10.84375 18.40625 10.800781 C 18.550781 10.703125 19.859375 10.746094 19.917969 10.851562 C 19.996094 10.988281 19.996094 13.675781 19.917969 13.816406 C 19.859375 13.917969 18.523438 13.957031 18.390625 13.863281 Z M 22.117188 13.933594 L 21.425781 13.914062 L 21.421875 12.894531 C 21.421875 12.332031 21.414062 11.6875 21.40625 11.457031 L 21.402344 11.4375 C 21.394531 11.171875 21.390625 11.003906 21.429688 10.90625 C 21.5 10.746094 21.691406 10.753906 22.1875 10.769531 L 22.214844 10.769531 L 22.949219 10.792969 L 22.964844 12.308594 C 22.976562 13.691406 22.96875 13.832031 22.894531 13.890625 C 22.847656 13.929688 22.5 13.949219 22.117188 13.933594 Z M 22.117188 13.933594 "/>
</g>
</svg>
